<svg xmlns="http://www.w3.org/2000/svg" xmlns:xlink="http://www.w3.org/1999/xlink" width="500" zoomAndPan="magnify" viewBox="0 0 375 374.999991" height="500" preserveAspectRatio="xMidYMid meet" version="1.0"><defs><clipPath id="id1"><path d="M 48.464844 48.464844 L 325.964844 48.464844 L 325.964844 325.964844 L 48.464844 325.964844 Z M 48.464844 48.464844 " clip-rule="nonzero"/></clipPath></defs><rect x="-37.5" width="450" fill="#ffffff" y="-37.499999" height="449.999989" fill-opacity="1"/><rect x="-37.5" width="450" fill="#050a30" y="-37.499999" height="449.999989" fill-opacity="1"/><rect x="-37.5" width="450" fill="#ffffff" y="-37.499999" height="449.999989" fill-opacity="1"/><rect x="-37.5" width="450" fill="#050a30" y="-37.499999" height="449.999989" fill-opacity="1"/><g clip-path="url(#id1)"><path fill="#f4f6fc" d="M 187.214844 48.464844 C 110.707031 48.464844 48.464844 110.707031 48.464844 187.214844 C 48.464844 263.722656 110.707031 325.964844 187.214844 325.964844 C 263.722656 325.964844 325.964844 263.722656 325.964844 187.214844 C 325.964844 110.707031 263.722656 48.464844 187.214844 48.464844 Z M 187.214844 322.054688 C 112.859375 322.054688 52.375 261.570312 52.375 187.214844 C 52.375 112.859375 112.859375 52.375 187.214844 52.375 C 261.570312 52.375 322.054688 112.859375 322.054688 187.214844 C 322.054688 261.570312 261.570312 322.054688 187.214844 322.054688 Z M 187.214844 322.054688 " fill-opacity="1" fill-rule="nonzero"/></g><path fill="#f4f6fc" d="M 301.789062 178.394531 C 298.824219 157.441406 284.886719 137.347656 255.859375 137.347656 C 222.324219 137.347656 208.507812 164.375 209.121094 188.355469 C 209.730469 211.726562 222.332031 236.722656 255.859375 236.722656 C 285.6875 236.722656 298.945312 216.785156 301.792969 195.933594 C 302.011719 193.058594 302.125 190.152344 302.125 187.21875 C 302.125 184.246094 302.011719 181.304688 301.789062 178.394531 Z M 301.789062 178.394531 " fill-opacity="1" fill-rule="nonzero"/><path fill="#f4f6fc" d="M 255.859375 261.308594 C 205.871094 261.308594 182.699219 225.339844 182.699219 187.945312 C 182.699219 150.546875 206.679688 112.953125 255.859375 112.953125 C 263.53125 112.953125 270.597656 113.882812 277.0625 115.582031 C 256.007812 89.207031 223.589844 72.304688 187.214844 72.304688 C 150.746094 72.304688 118.246094 89.300781 97.199219 115.800781 L 121.53125 115.800781 L 185.339844 258.058594 L 156.070312 258.058594 L 144.085938 231.230469 L 81.046875 231.230469 C 98.320312 272.851562 139.34375 302.125 187.214844 302.125 C 223.613281 302.125 256.054688 285.199219 277.109375 258.789062 C 270.664062 260.417969 263.597656 261.308594 255.859375 261.308594 Z M 255.859375 261.308594 " fill-opacity="1" fill-rule="nonzero"/><path fill="#f4f6fc" d="M 80.476562 206.234375 L 133.3125 206.234375 L 106.890625 145.671875 Z M 80.476562 206.234375 " fill-opacity="1" fill-rule="nonzero"/></svg>